<?xml version="1.0" encoding="utf-8" ?>
<svg xmlns="http://www.w3.org/2000/svg" xmlns:xlink="http://www.w3.org/1999/xlink" width="835" height="835">
	<path transform="scale(1.6698 1.6698)" d="M357.579 26.9895C358.517 26.9646 359.589 26.8106 360.458 27.2094C361.449 29.2639 360.331 94.1069 360.768 103.084C343.543 103.318 326.298 103.131 309.07 103.139C304.805 103.141 291.058 103.727 288.078 102.883C288.599 102.625 288.929 102.505 289.514 102.524C296.974 102.757 304.467 102.623 311.931 102.625L347.852 102.64C351.575 102.635 355.311 102.289 359.016 102.359C359.634 98.3848 359.61 29.1003 359.215 27.7858C359.089 27.364 357.987 27.1368 357.579 26.9895Z"/>
	<path transform="scale(1.6698 1.6698)" d="M380.755 358.309C381.29 358.644 382.339 359.125 382.494 359.775C383.124 362.42 382.695 366.101 382.691 368.852L382.668 387.069L382.664 443.775C382.665 453.512 382.407 463.325 382.689 473.051L350.061 473.069C350.173 468.813 349.606 463.615 350.211 459.525C350.841 462.782 349.457 469.781 351.333 472.339C354.2 472.811 357.45 472.351 360.372 472.353L373.88 472.381C376.246 472.385 378.713 472.532 381.06 472.281C381.566 465.912 381.367 459.444 381.365 453.059L381.356 423.324L381.362 382.071C381.364 374.999 381.587 367.847 381.336 360.784C381.303 359.838 381.229 359.153 380.755 358.309Z"/>
	<path transform="scale(1.6698 1.6698)" d="M211.987 374.994C224.333 374.644 236.761 374.916 249.113 374.915C262.066 374.914 275.076 374.655 288.022 375.023L288.033 440.441C288.034 450.926 288.385 461.537 288.004 472.003C287.988 472.422 287.905 472.688 287.703 473.053C280.491 473.323 273.221 473.142 266.004 473.143C247.951 473.145 229.86 472.857 211.814 473.128C212.13 470 211.927 466.701 211.927 463.552L211.928 445.963L211.923 400.691C211.918 392.138 211.721 383.541 211.987 374.994Z"/>
	<path transform="scale(1.6698 1.6698)" d="M116.978 359.563C120.588 356.318 128.157 352.073 132.557 349.246L162.908 329.591L219.795 292.784L237.915 281.053C241.788 278.546 245.626 275.925 249.631 273.635C255.303 276.516 260.7 280.573 266.048 284.038L297.31 304.281L351.233 339.157C361.068 345.512 371.093 351.707 380.755 358.309C381.229 359.153 381.303 359.838 381.336 360.784C381.587 367.847 381.364 374.999 381.362 382.071L381.356 423.324L381.365 453.059C381.367 459.444 381.566 465.912 381.06 472.281C378.713 472.532 376.246 472.385 373.88 472.381L360.372 472.353C357.45 472.351 354.2 472.811 351.333 472.339C349.457 469.781 350.841 462.782 350.211 459.525C349.984 456.829 350.128 454.024 350.131 451.317L350.144 436.624L350.15 398.961C350.149 391.76 350.288 384.529 350.058 377.332C344.999 373.576 339.384 370.313 334.082 366.889L304.385 347.669L269.713 325.217C263.055 320.904 256.463 316.346 249.598 312.375L178.621 358.277L159.687 370.506C156.342 372.666 152.258 374.812 149.388 377.544C149.041 382.282 149.276 387.18 149.278 391.938L149.283 417.568L149.284 454.136C149.283 460.438 149.09 466.785 149.303 473.08C138.473 472.778 127.558 473.1 116.719 473.052C117.199 469.808 116.888 466.206 116.885 462.915L116.879 443.614L116.874 389.565C116.866 379.595 116.512 369.514 116.978 359.563Z"/>
	<path transform="scale(1.6698 1.6698)" d="M139.051 26.9416L290.526 26.9092L335.14 26.92C342.587 26.9184 350.144 26.652 357.579 26.9895C357.987 27.1368 359.089 27.364 359.215 27.7858C359.61 29.1003 359.634 98.3848 359.016 102.359C355.311 102.289 351.575 102.635 347.852 102.64L311.931 102.625C304.467 102.623 296.974 102.757 289.514 102.524C288.929 102.505 288.599 102.625 288.078 102.883C287.697 113.293 288.023 123.822 288.022 134.243L288.017 195.039C278.503 195.204 268.97 195.082 259.453 195.084L211.818 195.053C212.131 191.808 211.921 188.393 211.921 185.125L211.919 167.236C211.918 145.911 211.656 124.549 211.986 103.227Q188.957 103.046 165.927 103.14C157.296 103.14 147.479 102.699 138.979 103.184C139.341 77.7776 138.734 52.3498 139.051 26.9416Z"/>
	<path transform="scale(1.6698 1.6698)" d="M73.0914 134.024C87.4644 133.863 101.853 133.986 116.227 133.987C127.292 133.987 138.394 133.796 149.454 134.084C148.79 138.561 149.283 147.172 149.288 152.015L149.287 190.304L149.294 257.524C149.303 267.089 148.681 276.789 149.166 286.331C153.265 282.916 158.374 280.159 162.871 277.252L189.958 259.762L228.78 234.683C235.642 230.248 242.481 225.368 249.624 221.405C253.518 223.363 257.207 226.056 260.865 228.423L280.086 240.843C303.681 256.083 327.097 271.739 350.975 286.527C351.189 277.593 350.121 268.84 350.129 259.917L350.14 177.737Q350.042 155.884 350.194 134.032C362.648 133.855 375.123 133.99 387.579 133.988Q407.056 133.923 426.532 134.061C426.197 140.282 426.294 146.855 426.552 153.089C426.695 156.536 427.045 159.928 427.046 163.388L427.058 242.756L426.489 466.438Q426.47 469.752 426.49 473.065L394.063 473.052C394.243 466.49 394.109 459.892 394.11 453.326L394.117 416.575C394.12 395.522 394.531 374.382 394.047 353.338C387.857 348.734 380.95 344.781 374.477 340.568L332.246 313.208L278.404 278.346C268.864 272.168 259.409 265.651 249.651 259.83C237.915 267.082 226.431 274.836 214.848 282.336L146.471 326.615L119.409 344.162C115.527 346.661 108.516 350.449 105.417 353.577C104.98 359.903 105.306 366.473 105.307 372.825L105.309 409.566L105.312 451.702C105.311 458.791 104.983 466.008 105.346 473.079C94.5443 472.912 83.7236 473.098 72.9189 473.075C73.1241 469.673 72.9794 466.192 72.9798 462.779L72.9816 444.111L72.9845 386.596L72.9855 208.37L72.982 159.763C72.9761 151.253 72.51 142.496 73.0914 134.024Z"/>
</svg>
